<?xml version="1.0" encoding="UTF-8"?>
<svg width="130px" height="56px" viewBox="0 0 130 56" version="1.1" xmlns="http://www.w3.org/2000/svg" xmlns:xlink="http://www.w3.org/1999/xlink">
    <!-- Generator: Sketch 49.1 (51147) - http://www.bohemiancoding.com/sketch -->
    <title>Alfredd / Dark BG 2@2x</title>
    <desc>Created with Sketch.</desc>
    <defs></defs>
    <g id="Symbols" stroke="none" stroke-width="1" fill="none" fill-rule="evenodd">
        <g id="Alfredd-/-Dark-BG-2" transform="translate(-71.000000, -108.000000)">
            <g transform="translate(71.000000, 108.000000)" id="Group-18">
                <g>
                    <path d="M14.1591687,17.2759019 L12.1676594,12.8614721 C11.5283234,11.4833174 10.9510835,9.98835984 10.4346724,8.37659927 C9.94297301,9.91791681 9.40248384,11.402037 8.81257128,12.8259495 L6.96869852,17.2759019 L14.1591687,17.2759019 Z M25,26 C23.8201749,25.930159 22.1239387,25.8952386 19.9112913,25.8952386 C17.3792929,25.8952386 15.5601318,25.930159 14.4538081,26 C14.4538081,25.0661783 14.5399823,24.3418795 14.7123305,23.8283077 C15.3022431,23.7109026 15.7318464,23.5651999 16.0030414,23.3899955 C16.2729692,23.214791 16.4085667,22.9643269 16.4085667,22.6367969 C16.4085667,22.356229 16.2482575,21.8540966 15.9289063,21.1297978 L15.0811051,19.2380713 C11.8109238,19.2380713 8.81257128,19.3205559 6.08351286,19.4837188 L5.60448612,20.639707 C5.35863642,21.2941649 5.23571157,21.8077367 5.23571157,22.1810245 C5.23571157,23.1389293 5.82562413,23.6874216 7.00544925,23.8283077 C7.17716386,24.3882394 7.26397161,25.1131403 7.26397161,26 C6.42757572,25.930159 5.11278672,25.8952386 3.31833735,25.8952386 C1.79381574,25.8952386 0.68749208,25.930159 0,26 C0,25.1366213 0.097579521,24.4123225 0.294639463,23.8283077 C0.908630085,23.7349857 1.40666582,23.448397 1.78811304,22.9697456 C2.16892663,22.4910943 2.65492333,21.5626913 3.24420226,20.1839346 L10.9878342,2.17520446 C11.3318971,2.1053635 11.6822963,2.05900356 12.0390318,2.03552255 C12.3951337,2.01143947 12.7822836,2 13.2004816,2 L21.6442783,19.9738096 C22.1606894,21.0726005 22.5719174,21.8781797 22.8798631,22.3911495 C23.1865416,22.9059254 23.4754784,23.261753 23.7460398,23.4598364 C24.0166012,23.659124 24.3359524,23.7819477 24.7047269,23.8283077 C24.9017868,24.4586825 25,25.1829813 25,26 Z M26.2662029,23.7617127 C27.2806517,23.7139311 27.9602212,23.4787465 28.3022952,23.0573999 C28.6450232,22.6366739 28.8163872,21.8237667 28.8163872,20.6199193 L28.8163872,5.63388148 C28.8163872,4.83959044 28.6195148,4.26745268 28.2264241,3.91808874 C27.8326793,3.56934533 27.090974,3.37139311 26,3.322991 C26,2.40769469 26.139315,1.69717654 26.4185991,1.19205709 C27.6613153,1.19205709 28.9687834,1.06546696 30.3390415,0.812907229 C31.7092996,0.559726962 32.6733857,0.289171579 33.2312998,0 C33.9926269,0.289171579 34.3739446,0.927086565 34.3739446,1.9143655 L34.3739446,20.6199193 C34.3739446,21.8237667 34.5381139,22.6366739 34.8684148,23.0573999 C35.1980616,23.4787465 35.8325009,23.7139311 36.7717327,23.7617127 C36.9234748,24.2190506 37,24.96556 37,26 C35.908372,25.9280174 34.0815793,25.8926466 31.5189678,25.8926466 C28.9053395,25.8926466 27.0654656,25.9280174 26,26 C26,25.0381632 26.0889523,24.2916537 26.2662029,23.7617127 Z M53.7936702,4.41194044 C53.7936702,5.0146985 53.804903,5.44843574 53.82796,5.71377357 C53.4838799,5.85855979 53.0138736,5.9666834 52.4173498,6.0393872 C51.8208261,6.11146961 51.2479505,6.13570421 50.6975406,6.11146961 C50.6975406,4.9544227 50.5136765,4.05028561 50.1471307,3.39905834 C49.7794025,2.74845247 49.2520495,2.42346024 48.5644805,2.42346024 C47.8763204,2.42346024 47.388578,2.77890108 47.1018446,3.48978275 C46.8151111,4.20128582 46.67204,5.46024235 46.67204,7.26913793 L46.67204,9.69135537 L50.4563298,9.69135537 C50.4563298,10.8247891 50.3416364,11.6208026 50.1122497,12.078153 C48.8736796,12.078153 47.726746,12.2353672 46.67204,12.5485529 L46.67204,19.5635382 C46.67204,20.6248895 46.7808214,21.4438947 46.9989752,22.0224182 C47.2165379,22.6009417 47.56653,23.0166583 48.0483604,23.2701895 C48.5301908,23.5230994 49.2177597,23.6865276 50.1122497,23.75861 C50.2724657,24.2408164 50.3534605,24.9877393 50.3534605,26 C49.1373561,25.9279176 47.3483762,25.8918764 44.9865206,25.8918764 C42.3255163,25.8918764 40.3644963,25.9279176 39.1028693,26 C39.1028693,25.0362085 39.17204,24.2886642 39.3091991,23.75861 C39.9512455,23.7107622 40.4330758,23.5839966 40.7546902,23.3783131 C41.0757134,23.1738725 41.3045089,22.8246457 41.4422592,22.3300112 C41.5800095,21.8359982 41.6491802,21.0946679 41.6491802,20.1060204 L41.6491802,12.4031452 C40.7085764,12.1390502 39.8259105,12.0060706 39,12.0060706 C39,10.9453407 39.160216,10.1735618 39.4818304,9.69135537 L41.6491802,9.69135537 L41.6491802,8.46222605 C41.6491802,6.62971726 42.0044931,5.08056691 42.7157102,3.81539638 C43.4263361,2.54960445 44.3840848,1.59761956 45.5883651,0.958198896 C46.7926454,0.320021032 48.1518209,0 49.6653003,0 C50.5367334,0 51.3561406,0.10253101 52.1252956,0.307593031 C52.8932682,0.513276451 53.5181696,0.772400277 54,1.08496451 C53.8622497,2.09722521 53.7936702,3.20704572 53.7936702,4.41194044 Z M67.6836895,15.0724288 C67.6836895,15.5263793 67.6951588,15.8551424 67.718701,16.0593031 C67.0395992,16.3090929 66.0441869,16.4336953 64.7330677,16.4336953 C64.7095255,15.5720083 64.568876,14.9595262 64.3117228,14.5962488 C64.0533623,14.2329714 63.690571,14.0510402 63.2221417,14.0510402 C62.8708198,14.0510402 62.4965592,14.249936 62.0987565,14.6465577 C61.6997465,15.0443494 61.3719667,15.5720083 61.1148135,16.2301196 C60.856453,16.8882308 60.72848,17.5691565 60.72848,18.2723118 L60.72848,19.9401119 C60.72848,20.939271 60.8395509,21.7108698 61.0622963,22.2549084 C61.284438,22.800117 61.6417965,23.1914738 62.133768,23.4295638 C62.6251358,23.6676538 63.3277798,23.8215056 64.2410962,23.8893642 C64.4046843,24.3438997 64.4873838,25.047055 64.4873838,26 C63.2450803,25.9315564 61.4190511,25.8982121 59.0068816,25.8982121 C56.2898708,25.8982121 54.2881806,25.9315564 53,26 C53,25.092684 53.0706266,24.3889437 53.2106725,23.8893642 C53.866232,23.8443201 54.3582035,23.7249826 54.6859833,23.5319367 C55.0137631,23.3394757 55.2479778,23.0101276 55.3886273,22.5444774 C55.5292768,22.0799971 55.5992998,21.3815217 55.5992998,20.4508062 L55.5992998,15.8890717 C55.5992998,15.1859164 55.5407461,14.6524076 55.4236388,14.2891302 C55.3065314,13.9264378 55.0723168,13.6544185 54.7215985,13.4724873 C54.3702765,13.2911411 53.808282,13.1776535 53.0350115,13.1320244 C53.0350115,12.246938 53.175661,11.577712 53.45696,11.1231765 C54.6980563,11.1009469 55.9035374,10.9821944 57.0752143,10.766334 C58.2456839,10.5510585 59.1239889,10.2954188 59.7095255,10 C60.3886273,10.2503748 60.72848,10.8739717 60.72848,11.8719608 C60.72848,12.3270813 60.6759628,12.8313407 60.5703248,13.3870791 C60.4652904,13.9434024 60.32947,14.5272202 60.1664856,15.1402874 C60.5407461,14.0288106 60.8335144,13.3139556 61.0441869,12.9957223 C61.5832428,12.1568498 62.2327659,11.4864539 62.9939635,10.9874593 C63.7545575,10.4884648 64.5803453,10.23809 65.4707232,10.23809 C66.4305203,10.23809 67.2738138,10.5106943 68,11.0553179 C67.7893275,12.3721253 67.6836895,13.7105773 67.6836895,15.0724288 Z M84.5498104,22.5718412 C84.7300101,22.9080144 84.8321852,23.2551625 84.8563356,23.6138628 C83.9429522,24.4202166 82.910055,25.020361 81.7570245,25.4119856 C80.6039941,25.8041877 79.270764,26 77.7573342,26 C74.8258379,26 72.6337178,25.2722022 71.1803545,23.8148736 C69.7269913,22.3587004 69,20.4537184 69,18.101083 C69,16.5103249 69.3480146,15.1038267 70.0452821,13.8827437 C70.7419305,12.6616606 71.7265268,11.7091697 73.0003096,11.0252708 C74.2734732,10.3419495 75.7509869,10 77.4328508,10 C79.9067265,10 81.7625977,10.6440433 83.0004644,11.9327076 C84.2370927,13.2213718 84.9040173,14.9744404 85,17.1930686 C84.8563356,17.8434657 84.5553835,18.3812274 84.0996207,18.8069314 C79.9667931,18.8069314 76.7597337,18.8629603 74.4778234,18.9744404 C74.6939392,20.3647653 75.1986222,21.4570397 75.9912532,22.2524188 C76.7838842,23.0477978 77.9127641,23.4457762 79.3785123,23.4457762 C80.2194442,23.4457762 81.0479913,23.3054152 81.8653921,23.0252708 C82.6815543,22.745704 83.366437,22.3587004 83.919421,21.8654152 C84.159068,22.0005776 84.3696107,22.2356679 84.5498104,22.5718412 Z M75.2165802,13.2774007 C74.6759811,14.0727798 74.3812215,15.2557401 74.3335397,16.8239711 L80.063395,16.8239711 C80.063395,15.3227437 79.8293212,14.1571119 79.3605542,13.3276534 C78.8924065,12.4987726 78.213097,12.0840433 77.3244833,12.0840433 C76.4600201,12.0840433 75.7571793,12.4820217 75.2165802,13.2774007 Z M108,23.0633151 C108,23.732254 107.87881,24.3168832 107.638296,24.8184336 C106.721606,24.8664347 105.7813,24.9919761 104.817377,25.1944425 C103.852832,25.3975242 102.97281,25.6664536 102.17731,26 C101.76713,25.8326114 101.471924,25.6006059 101.291072,25.3021373 C101.11022,25.0036687 101.019484,24.5562735 101.019484,23.9587209 C101.019484,23.4344008 101.092197,22.8725414 101.237003,22.2762196 C100.85044,22.9919288 100.404835,23.5771734 99.8983251,24.0301072 C99.4645288,24.532273 98.8138343,24.9858221 97.9456201,25.3913702 C97.0774059,25.7969183 96.1370995,26 95.1247009,26 C92.9302383,26 91.1944315,25.3735236 89.9166589,24.1199555 C88.6388863,22.8670028 88,20.9746503 88,18.4435135 C88,16.6299321 88.4157733,14.9997396 89.2479413,13.5553978 C90.0794879,12.1110559 91.2485007,10.9830292 92.7556011,10.1713177 C94.2620801,9.35960614 95.9929151,8.95344269 97.9456201,8.95344269 C98.8616886,8.95344269 99.7299027,9.07344553 100.549641,9.31160501 L100.549641,5.80198348 C100.549641,4.91950105 100.380597,4.29240929 100.043131,3.92193898 C99.7056648,3.55208407 98.9822566,3.34346375 97.8729064,3.29546261 C97.8729064,2.38774882 98.0052826,1.68373216 98.2712781,1.18218183 C99.476337,1.18218183 100.724278,1.06340978 102.014481,0.824019503 C103.304061,0.58586002 104.226345,0.310776586 104.781331,0 C105.480501,0.286776018 105.829775,0.920021776 105.829775,1.89850647 L105.829775,19.6256953 C105.829775,20.4374068 105.878251,21.040498 105.974581,21.4343535 C106.07029,21.828209 106.269787,22.102677 106.571207,22.2577576 C106.872627,22.4134536 107.336254,22.5026865 107.963954,22.5260716 L108,23.0633151 Z M99.4645288,21.5771261 C100.187937,20.5869488 100.549641,19.0650666 100.549641,17.0114796 L100.549641,12.3196762 C100.163699,11.9141281 99.759734,11.6101209 99.3377459,11.4070392 C98.9157577,11.2045729 98.4278922,11.1024166 97.8729064,11.1024166 C96.7163233,11.1024166 95.6908735,11.5861204 94.7990429,12.5529125 C93.9072123,13.5197046 93.4609863,15.2206679 93.4609863,17.6558025 C93.4609863,19.3032261 93.7686212,20.616488 94.3832696,21.5949727 C94.997918,22.5746882 95.812063,23.0633151 96.8244616,23.0633151 C97.8604767,23.0633151 98.7411205,22.5679188 99.4645288,21.5771261 Z M130,23.0633151 C130,23.732254 129.879428,24.3168832 129.638906,24.8184336 C128.722188,24.8664347 127.781852,24.9919761 126.817278,25.1944425 C125.853325,25.3975242 124.973275,25.6664536 124.177129,26 C123.766936,25.8326114 123.471722,25.6006059 123.290864,25.3021373 C123.110006,25.0036687 123.019888,24.5562735 123.019888,23.9587209 C123.019888,23.4344008 123.092604,22.8725414 123.236793,22.2762196 C122.850839,22.9919288 122.405221,23.5771734 121.898695,24.0301072 C121.464885,24.532273 120.813549,24.9858221 119.945929,25.3913702 C119.077688,25.7969183 118.137352,26 117.124922,26 C114.930392,26 113.194531,25.3735236 111.916718,24.1199555 C110.638285,22.8670028 110,20.9746503 110,18.4435135 C110,16.6299321 110.415786,14.9997396 111.247359,13.5553978 C112.079553,12.1110559 113.248602,10.9830292 114.755749,10.1713177 C116.262275,9.35960614 117.992542,8.95344269 119.945929,8.95344269 C120.862026,8.95344269 121.729646,9.07344553 122.550031,9.31160501 L122.550031,5.80198348 C122.550031,4.91950105 122.380982,4.29240929 122.043505,3.92193898 C121.705407,3.55208407 120.982598,3.34346375 119.873213,3.29546261 C119.873213,2.38774882 120.005594,1.68373216 120.271597,1.18218183 C121.476694,1.18218183 122.724052,1.06340978 124.014916,0.824019503 C125.304537,0.58586002 126.226227,0.310776586 126.781231,0 C127.480423,0.286776018 127.830329,0.920021776 127.830329,1.89850647 L127.830329,19.6256953 C127.830329,20.4374068 127.878185,21.040498 127.97514,21.4343535 C128.070851,21.828209 128.269733,22.102677 128.571784,22.2577576 C128.872592,22.4134536 129.336855,22.5026865 129.963953,22.5260716 L130,23.0633151 Z M121.464885,21.5771261 C122.188316,20.5869488 122.550031,19.0650666 122.550031,17.0114796 L122.550031,12.3196762 C122.164077,11.9141281 121.760099,11.6101209 121.338098,11.4070392 C120.916097,11.2045729 120.427595,11.1024166 119.873213,11.1024166 C118.715973,11.1024166 117.691112,11.5861204 116.799254,12.5529125 C115.906774,13.5197046 115.461156,15.2206679 115.461156,17.6558025 C115.461156,19.3032261 115.768179,20.616488 116.383468,21.5949727 C116.998135,22.5746882 117.811684,23.0633151 118.824736,23.0633151 C119.860783,23.0633151 120.741454,22.5679188 121.464885,21.5771261 Z" id="Combined-Shape" fill="#FFFFFF"></path>
                    <path d="M81.4241311,36.1443478 L67.75823,44.1500492 C66.0512938,45.1499074 63.9487062,45.1499074 62.24177,44.1500492 L48.5758689,36.1443478 C47.8752105,35.7342133 47,36.2468814 47,37.0671504 L47,54.9322369 C47,55.7531274 47.8752105,56.2657955 48.5758689,55.855661 L62.24177,47.850581 C63.9487062,46.8507228 66.0512938,46.8507228 67.75823,47.850581 L81.4241311,55.855661 C82.1247895,56.2657955 83,55.7531274 83,54.9322369 L83,37.0671504 C83,36.2468814 82.1247895,35.7342133 81.4241311,36.1443478" id="Fill-16" fill="#87D5FF"></path>
                </g>
            </g>
        </g>
    </g>
</svg>